<?xml version="1.0" encoding="UTF-8" standalone="no"?>
<svg
   width="25.983479"
   height="25.983479"
   version="1.1"
   id="svg1"
   sodipodi:docname="Rectangle.svg"
   xml:space="preserve"
   xmlns:inkscape="http://www.inkscape.org/namespaces/inkscape"
   xmlns:sodipodi="http://sodipodi.sourceforge.net/DTD/sodipodi-0.dtd"
   xmlns="http://www.w3.org/2000/svg"
   xmlns:svg="http://www.w3.org/2000/svg"><defs
     id="defs1" /><sodipodi:namedview
     id="namedview1"
     pagecolor="#ffffff"
     bordercolor="#000000"
     borderopacity="0.25"
     inkscape:showpageshadow="2"
     inkscape:pageopacity="0.0"
     inkscape:pagecheckerboard="0"
     inkscape:deskcolor="#d1d1d1" /><path
     fill="none"
     stroke="#1d3c34"
     stroke-width="4"
     stroke-miterlimit="5"
     d="m 7,1 h 11.983479 c 3.313709,0 6,2.6862915 6,6 v 11.983479 c 0,3.313709 -2.686291,6 -6,6 H 7 c -3.3137085,0 -6,-2.686291 -6,-6 V 7 C 1,3.6862915 3.6862915,1 7,1 Z"
     fill-rule="evenodd"
     id="path1"
     style="stroke-width:2;stroke-dasharray:none" /><path
     fill="none"
     stroke="#1d3c34"
     stroke-width="4"
     stroke-miterlimit="5"
     d="m 18.820051,13.330876 q 0,0.140791 -0.0069,0.281412 -0.0069,0.140622 -0.02071,0.280734 -0.0138,0.140113 -0.03446,0.27938 -0.02066,0.139266 -0.04813,0.277352 -0.02747,0.138085 -0.06168,0.274657 -0.03421,0.136571 -0.07508,0.2713 -0.04087,0.134728 -0.0883,0.267288 -0.04743,0.132561 -0.10131,0.262635 -0.05388,0.130073 -0.114073,0.257347 -0.0602,0.127273 -0.126564,0.25144 -0.06637,0.124165 -0.138749,0.244925 -0.07238,0.12076 -0.150601,0.237824 -0.07822,0.117063 -0.162087,0.230148 -0.08387,0.113084 -0.173186,0.221917 -0.08932,0.108833 -0.183867,0.213151 -0.09455,0.10432 -0.194103,0.203874 -0.09955,0.09955 -0.203874,0.194103 -0.104318,0.09455 -0.213151,0.183866 -0.108833,0.08932 -0.221917,0.173186 -0.113084,0.08387 -0.230147,0.162087 -0.117064,0.07822 -0.237824,0.150601 -0.12076,0.07238 -0.244926,0.13875 -0.124167,0.06637 -0.25144,0.126564 -0.127274,0.0602 -0.257347,0.114073 -0.130074,0.05388 -0.262634,0.10131 -0.132561,0.04743 -0.267289,0.0883 -0.134729,0.04087 -0.2713,0.07508 -0.136572,0.03421 -0.274657,0.06168 -0.138086,0.02747 -0.277352,0.04812 -0.139267,0.02066 -0.279379,0.03446 -0.140113,0.0138 -0.280735,0.02071 -0.140621,0.0069 -0.281412,0.0069 -0.14079,0 -0.281411,-0.0069 -0.140621,-0.0069 -0.280734,-0.02071 -0.140114,-0.0138 -0.279381,-0.03446 -0.139267,-0.02066 -0.277352,-0.04813 -0.138085,-0.02747 -0.274657,-0.06168 -0.136571,-0.03421 -0.2713,-0.07508 -0.134728,-0.04087 -0.267289,-0.0883 -0.132561,-0.04743 -0.262635,-0.10131 -0.13007,-0.05387 -0.257343,-0.114064 -0.127274,-0.0602 -0.25144,-0.126564 -0.124166,-0.06637 -0.244927,-0.138749 -0.12076,-0.07238 -0.2378231,-0.150601 -0.117064,-0.07822 -0.230148,-0.162087 -0.113084,-0.08387 -0.221916,-0.173186 -0.108833,-0.08932 -0.213152,-0.183866 -0.104319,-0.09455 -0.203873,-0.194103 -0.09955,-0.09955 -0.194104,-0.203874 -0.09455,-0.104318 -0.183866,-0.213151 -0.08932,-0.108833 -0.173185,-0.221917 -0.08387,-0.113084 -0.162089,-0.230147 -0.07822,-0.117064 -0.1506,-0.237824 -0.07238,-0.12076 -0.138749,-0.244926 -0.06637,-0.124167 -0.126564,-0.25144 -0.0602,-0.127274 -0.114074,-0.257347 -0.05388,-0.130074 -0.101309,-0.262634 -0.04743,-0.132561 -0.0883,-0.267289 -0.04087,-0.134729 -0.07508,-0.2713 -0.03421,-0.136572 -0.06168,-0.274657 -0.02747,-0.138086 -0.04812,-0.277352 -0.02066,-0.139267 -0.03446,-0.27938 -0.0138,-0.140112 -0.02071,-0.280734 -0.0069,-0.140621 -0.0069,-0.281412 0,-0.14079 0.0069,-0.281411 0.0069,-0.140622 0.02071,-0.280734 0.0138,-0.140114 0.03446,-0.279381 0.02066,-0.139267 0.04812,-0.277352 0.02747,-0.138085 0.06168,-0.274657 0.03421,-0.136571 0.07508,-0.2713 0.04087,-0.134728 0.0883,-0.267289 0.04743,-0.132561 0.101309,-0.262635 0.05388,-0.130073 0.114074,-0.257347 0.0602,-0.127273 0.126564,-0.251439 0.06637,-0.124167 0.138749,-0.244927 0.07238,-0.12076 0.1506,-0.237823 0.07822,-0.117064 0.162089,-0.2301478 0.08387,-0.113084 0.173185,-0.221917 0.08932,-0.108832 0.183866,-0.213151 0.09455,-0.104319 0.194104,-0.203874 0.09955,-0.09955 0.203873,-0.1941032 0.104319,-0.09455 0.213152,-0.183866 0.108832,-0.08932 0.221916,-0.173186 0.113084,-0.08387 0.230148,-0.162088 0.1170631,-0.07822 0.2378231,-0.1506 0.120761,-0.07238 0.244927,-0.138749 0.124167,-0.06637 0.25144,-0.126564 0.127273,-0.0602 0.257347,-0.114074 0.130073,-0.05388 0.262634,-0.101309 0.132561,-0.04743 0.267289,-0.0883 0.134729,-0.04087 0.2713,-0.07508 0.136572,-0.03421 0.274657,-0.06168 0.138085,-0.02747 0.277352,-0.04813 0.139267,-0.02066 0.279381,-0.03446 0.140113,-0.0138 0.280734,-0.02071 0.140621,-0.0069 0.281411,-0.0069 0.140791,0 0.281412,0.0069 0.140622,0.0069 0.280735,0.02071 0.140112,0.0138 0.279379,0.03446 0.139266,0.02066 0.277352,0.04813 0.138085,0.02747 0.274657,0.06168 0.136571,0.03421 0.2713,0.07508 0.134728,0.04087 0.267289,0.0883 0.13256,0.04743 0.262634,0.101309 0.130073,0.05388 0.257347,0.114074 0.127273,0.0602 0.25144,0.126564 0.124166,0.06637 0.244925,0.138749 0.12076,0.07238 0.237824,0.1506 0.117063,0.07822 0.230148,0.162089 0.113084,0.08387 0.221917,0.173185 0.108833,0.08932 0.213151,0.183866 0.10432,0.09455 0.203874,0.1941032 0.09955,0.09955 0.194103,0.203874 0.09455,0.104319 0.183867,0.213151 0.08932,0.108833 0.173186,0.221917 0.08387,0.1130838 0.162087,0.2301478 0.07822,0.117063 0.150601,0.237823 0.07238,0.120761 0.13875,0.244927 0.06637,0.124166 0.126564,0.25144 0.0602,0.127273 0.114073,0.257347 0.05388,0.130073 0.10131,0.262634 0.04743,0.132561 0.0883,0.267289 0.04087,0.134729 0.07508,0.2713 0.03421,0.136572 0.06168,0.274657 0.02747,0.138085 0.04812,0.277352 0.02066,0.139267 0.03446,0.279381 0.0138,0.140112 0.02071,0.280734 0.0069,0.140621 0.0069,0.281411 z"
     id="path1-9"
     style="fill:#ffffff;stroke-width:2.5;stroke-dasharray:none" /><path
     fill="#1d3c34"
     d="m 21.93683,6.1353037 q 0,0.085149 -0.0083,0.1698905 -0.0083,0.084739 -0.02496,0.1682528 -0.01661,0.083509 -0.04133,0.1649981 -0.02472,0.081481 -0.0573,0.1601512 -0.03259,0.078666 -0.07273,0.153764 -0.04014,0.075098 -0.08744,0.1458951 -0.04731,0.070798 -0.101327,0.1366223 -0.05402,0.065823 -0.114229,0.1260319 -0.06022,0.060216 -0.126032,0.1142293 -0.06582,0.054021 -0.136621,0.1013273 -0.0708,0.047306 -0.145895,0.087442 -0.0751,0.040136 -0.153764,0.072726 -0.07867,0.03259 -0.160152,0.057301 -0.08148,0.024722 -0.164998,0.041333 -0.08352,0.016611 -0.168254,0.024955 -0.08474,0.00831 -0.169889,0.00831 -0.08515,0 -0.169891,-0.00831 -0.08474,-0.00831 -0.168255,-0.024955 -0.08351,-0.016611 -0.164997,-0.041333 -0.08148,-0.024722 -0.160151,-0.057301 -0.07867,-0.03259 -0.153764,-0.072726 -0.0751,-0.040136 -0.145896,-0.087442 -0.0708,-0.047306 -0.136621,-0.1013273 -0.06582,-0.054021 -0.126032,-0.1142293 -0.06022,-0.060216 -0.114228,-0.1260319 -0.05402,-0.065823 -0.101327,-0.1366212 -0.04731,-0.070798 -0.08744,-0.1458951 -0.04014,-0.075098 -0.07273,-0.1537651 -0.03259,-0.078666 -0.0573,-0.1601512 -0.02472,-0.081481 -0.04133,-0.164997 -0.01661,-0.083509 -0.02496,-0.1682539 -0.0083,-0.084739 -0.0083,-0.1698905 0,-0.08515 0.0083,-0.1698899 0.0083,-0.08474 0.02496,-0.1682541 0.01661,-0.083513 0.04133,-0.1649971 0.02471,-0.081484 0.0573,-0.160152 0.03259,-0.078668 0.07273,-0.1537639 0.04014,-0.075096 0.08744,-0.1458953 0.04731,-0.0708 0.101327,-0.1366214 0.05402,-0.065822 0.114228,-0.1260321 0.06022,-0.06021 0.126032,-0.1142286 0.06582,-0.054019 0.136621,-0.1013251 0.0708,-0.047307 0.145896,-0.087446 0.0751,-0.04014 0.153764,-0.072725 0.07867,-0.032586 0.160151,-0.057304 0.08148,-0.024718 0.164997,-0.04133 0.08351,-0.016612 0.168255,-0.024958 0.08474,-0.00834 0.16989,-0.00834 0.08515,0 0.16989,0.00834 0.08474,0.00834 0.168253,0.024958 0.08351,0.016612 0.164998,0.04133 0.08148,0.024718 0.160152,0.057304 0.07867,0.032586 0.153763,0.072725 0.0751,0.04014 0.145896,0.087446 0.0708,0.047307 0.136622,0.1013251 0.06582,0.054019 0.126032,0.1142288 0.06022,0.06021 0.114229,0.126032 0.05402,0.065822 0.101327,0.1366214 0.04731,0.0708 0.08744,0.1458952 0.04014,0.075096 0.07273,0.153764 0.03259,0.078668 0.0573,0.160152 0.02472,0.081484 0.04133,0.1649971 0.01661,0.083514 0.02496,0.1682541 0.0083,0.08474 0.0083,0.1698898 z"
     id="path1-6"
     style="stroke-width:1.88382;stroke-dasharray:none" /></svg>
